<svg width="4393" height="2475" xmlns="http://www.w3.org/2000/svg" xmlns:xlink="http://www.w3.org/1999/xlink" xml:space="preserve" overflow="hidden"><defs><filter id="fx0" x="-10%" y="-10%" width="120%" height="120%" filterUnits="userSpaceOnUse" primitiveUnits="userSpaceOnUse"><feComponentTransfer color-interpolation-filters="sRGB"><feFuncR type="discrete" tableValues="0 0"/><feFuncG type="discrete" tableValues="0 0"/><feFuncB type="discrete" tableValues="0 0"/><feFuncA type="linear" slope="0.4" intercept="0"/></feComponentTransfer><feGaussianBlur stdDeviation="6.11111 6.11111"/></filter><filter id="fx1" x="-10%" y="-10%" width="120%" height="120%" filterUnits="userSpaceOnUse" primitiveUnits="userSpaceOnUse"><feComponentTransfer color-interpolation-filters="sRGB"><feFuncR type="discrete" tableValues="0 0"/><feFuncG type="discrete" tableValues="0 0"/><feFuncB type="discrete" tableValues="0 0"/><feFuncA type="linear" slope="0.4" intercept="0"/></feComponentTransfer><feGaussianBlur stdDeviation="6.11111 6.11111"/></filter><filter id="fx2" x="-10%" y="-10%" width="120%" height="120%" filterUnits="userSpaceOnUse" primitiveUnits="userSpaceOnUse"><feComponentTransfer color-interpolation-filters="sRGB"><feFuncR type="discrete" tableValues="0 0"/><feFuncG type="discrete" tableValues="0 0"/><feFuncB type="discrete" tableValues="0 0"/><feFuncA type="linear" slope="0.4" intercept="0"/></feComponentTransfer><feGaussianBlur stdDeviation="6.11111 6.11111"/></filter><filter id="fx3" x="-10%" y="-10%" width="120%" height="120%" filterUnits="userSpaceOnUse" primitiveUnits="userSpaceOnUse"><feComponentTransfer color-interpolation-filters="sRGB"><feFuncR type="discrete" tableValues="0 0"/><feFuncG type="discrete" tableValues="0 0"/><feFuncB type="discrete" tableValues="0 0"/><feFuncA type="linear" slope="0.4" intercept="0"/></feComponentTransfer><feGaussianBlur stdDeviation="6.11111 6.11111"/></filter><filter id="fx4" x="-10%" y="-10%" width="120%" height="120%" filterUnits="userSpaceOnUse" primitiveUnits="userSpaceOnUse"><feComponentTransfer color-interpolation-filters="sRGB"><feFuncR type="discrete" tableValues="0 0"/><feFuncG type="discrete" tableValues="0 0"/><feFuncB type="discrete" tableValues="0 0"/><feFuncA type="linear" slope="0.4" intercept="0"/></feComponentTransfer><feGaussianBlur stdDeviation="6.11111 6.11111"/></filter><filter id="fx5" x="-10%" y="-10%" width="120%" height="120%" filterUnits="userSpaceOnUse" primitiveUnits="userSpaceOnUse"><feComponentTransfer color-interpolation-filters="sRGB"><feFuncR type="discrete" tableValues="0 0"/><feFuncG type="discrete" tableValues="0 0"/><feFuncB type="discrete" tableValues="0 0"/><feFuncA type="linear" slope="0.4" intercept="0"/></feComponentTransfer><feGaussianBlur stdDeviation="6.11111 6.11111"/></filter><filter id="fx6" x="-10%" y="-10%" width="120%" height="120%" filterUnits="userSpaceOnUse" primitiveUnits="userSpaceOnUse"><feComponentTransfer color-interpolation-filters="sRGB"><feFuncR type="discrete" tableValues="0 0"/><feFuncG type="discrete" tableValues="0 0"/><feFuncB type="discrete" tableValues="0 0"/><feFuncA type="linear" slope="0.4" intercept="0"/></feComponentTransfer><feGaussianBlur stdDeviation="6.11111 6.11111"/></filter><filter id="fx7" x="-10%" y="-10%" width="120%" height="120%" filterUnits="userSpaceOnUse" primitiveUnits="userSpaceOnUse"><feComponentTransfer color-interpolation-filters="sRGB"><feFuncR type="discrete" tableValues="0 0"/><feFuncG type="discrete" tableValues="0 0"/><feFuncB type="discrete" tableValues="0 0"/><feFuncA type="linear" slope="0.4" intercept="0"/></feComponentTransfer><feGaussianBlur stdDeviation="6.11111 6.11111"/></filter><filter id="fx8" x="-10%" y="-10%" width="120%" height="120%" filterUnits="userSpaceOnUse" primitiveUnits="userSpaceOnUse"><feComponentTransfer color-interpolation-filters="sRGB"><feFuncR type="discrete" tableValues="0 0"/><feFuncG type="discrete" tableValues="0 0"/><feFuncB type="discrete" tableValues="0 0"/><feFuncA type="linear" slope="0.4" intercept="0"/></feComponentTransfer><feGaussianBlur stdDeviation="6.11111 6.11111"/></filter></defs><g><rect x="0" y="0" width="4393" height="2475" fill="#D9D9D9"/><g filter="url(#fx0)" transform="translate(75 19)"><g><path d="M19.7226 61.7241C19.7226 38.5273 38.5271 19.7226 61.7236 19.7226L4250.72 19.7226C4273.92 19.7226 4292.72 38.5273 4292.72 61.7241L4292.72 229.721C4292.72 252.918 4273.92 271.723 4250.72 271.723L61.7236 271.723C38.5271 271.723 19.7226 252.918 19.7226 229.721Z" fill-rule="evenodd"/></g></g><path d="M84.9999 71.0014C84.9999 47.8046 103.804 28.9999 127.001 28.9999L4316 28.9999C4339.2 28.9999 4358 47.8046 4358 71.0014L4358 238.998C4358 262.195 4339.2 281 4316 281L127.001 281C103.804 281 84.9999 262.195 84.9999 238.998Z" fill-rule="evenodd"/><g filter="url(#fx1)" transform="translate(3829 289)"><g><path d="M19.7227 39.7378C19.7227 28.6838 28.6837 19.7228 39.7376 19.7228L506.708 19.7228C517.762 19.7228 526.723 28.6838 526.723 39.7378L526.723 411.708C526.723 422.762 517.762 431.723 506.708 431.723L39.7376 431.723C28.6837 431.723 19.7227 422.762 19.7227 411.708Z" fill="#FFFFFF" fill-rule="evenodd"/></g></g><path d="M3839 319.015C3839 307.961 3847.96 299 3859.01 299L4325.98 299C4337.04 299 4346 307.961 4346 319.015L4346 690.985C4346 702.039 4337.04 711 4325.98 711L3859.01 711C3847.96 711 3839 702.039 3839 690.985Z" fill="#FFFFFF" fill-rule="evenodd"/><g filter="url(#fx2)" transform="translate(3268 742)"><g><path d="M19.7227 60.2389C19.7227 37.8625 37.8623 19.7228 60.2387 19.7228L1047.21 19.7228C1069.58 19.7228 1087.72 37.8625 1087.72 60.2389L1087.72 813.207C1087.72 835.583 1069.58 853.723 1047.21 853.723L60.2387 853.723C37.8623 853.723 19.7227 835.583 19.7227 813.207Z" fill="#FFFFFF" fill-rule="evenodd"/></g></g><path d="M3278 792.516C3278 770.14 3296.14 752 3318.52 752L4305.48 752C4327.86 752 4346 770.14 4346 792.516L4346 1545.48C4346 1567.86 4327.86 1586 4305.48 1586L3318.52 1586C3296.14 1586 3278 1567.86 3278 1545.48Z" fill="#FFFFFF" fill-rule="evenodd"/><g filter="url(#fx3)" transform="translate(3268 1616)"><g><path d="M19.7227 57.7603C19.7227 36.7527 36.7527 19.7227 57.7602 19.7227L1049.69 19.7227C1070.69 19.7227 1087.72 36.7527 1087.72 57.7603L1087.72 764.685C1087.72 785.693 1070.69 802.723 1049.69 802.723L57.7602 802.723C36.7527 802.723 19.7227 785.693 19.7227 764.685Z" fill="#FFFFFF" fill-rule="evenodd"/></g></g><path d="M3278 1664.04C3278 1643.03 3295.03 1626 3316.04 1626L4307.96 1626C4328.97 1626 4346 1643.03 4346 1664.04L4346 2370.96C4346 2391.97 4328.97 2409 4307.96 2409L3316.04 2409C3295.03 2409 3278 2391.97 3278 2370.96Z" fill="#FFFFFF" fill-rule="evenodd"/><g filter="url(#fx4)" transform="translate(3282 289)"><g><path d="M19.7229 39.7378C19.7229 28.6838 28.6839 19.7228 39.7379 19.7228L506.708 19.7228C517.762 19.7228 526.723 28.6838 526.723 39.7378L526.723 411.708C526.723 422.762 517.762 431.723 506.708 431.723L39.7379 431.723C28.6839 431.723 19.7229 422.762 19.7229 411.708Z" fill="#FFFFFF" fill-rule="evenodd"/></g></g><path d="M3292 319.015C3292 307.961 3300.96 299 3312.01 299L3778.99 299C3790.04 299 3799 307.961 3799 319.015L3799 690.985C3799 702.039 3790.04 711 3778.99 711L3312.01 711C3300.96 711 3292 702.039 3292 690.985Z" fill="#FFFFFF" fill-rule="evenodd"/><g filter="url(#fx5)" transform="translate(75 289)"><g><path d="M19.7226 72.2375C19.7226 43.2344 43.2343 19.7228 72.2373 19.7228L1524.21 19.7228C1553.21 19.7228 1576.72 43.2344 1576.72 72.2375L1576.72 1048.21C1576.72 1077.21 1553.21 1100.72 1524.21 1100.72L72.2373 1100.72C43.2343 1100.72 19.7226 1077.21 19.7226 1048.21Z" fill="#FFFFFF" fill-rule="evenodd"/></g></g><path d="M84.9999 351.515C84.9999 322.512 108.512 299 137.515 299L1589.49 299C1618.49 299 1642 322.512 1642 351.515L1642 1327.49C1642 1356.49 1618.49 1380 1589.49 1380L137.515 1380C108.512 1380 84.9999 1356.49 84.9999 1327.49Z" fill="#FFFFFF" fill-rule="evenodd"/><g filter="url(#fx6)" transform="translate(1678 289)"><g><path d="M19.7229 72.2381C19.7229 43.2347 43.2348 19.7228 72.2382 19.7228L1468.21 19.7228C1497.21 19.7228 1520.72 43.2347 1520.72 72.2381L1520.72 1048.21C1520.72 1077.21 1497.21 1100.72 1468.21 1100.72L72.2382 1100.72C43.2348 1100.72 19.7229 1077.21 19.7229 1048.21Z" fill="#FFFFFF" fill-rule="evenodd"/></g></g><path d="M1688 351.515C1688 322.512 1711.51 299 1740.52 299L3136.48 299C3165.49 299 3189 322.512 3189 351.515L3189 1327.48C3189 1356.49 3165.49 1380 3136.48 1380L1740.52 1380C1711.51 1380 1688 1356.49 1688 1327.48Z" fill="#FFFFFF" fill-rule="evenodd"/><g filter="url(#fx7)" transform="translate(75 1403)"><g><path d="M19.7226 68.1085C19.7226 41.3859 41.3856 19.7229 68.1081 19.7229L1528.34 19.7229C1555.06 19.7229 1576.72 41.3859 1576.72 68.1085L1576.72 967.337C1576.72 994.06 1555.06 1015.72 1528.34 1015.72L68.1081 1015.72C41.3856 1015.72 19.7226 994.06 19.7226 967.337Z" fill="#FFFFFF" fill-rule="evenodd"/></g></g><path d="M84.9999 1461.39C84.9999 1434.66 106.663 1413 133.385 1413L1593.61 1413C1620.34 1413 1642 1434.66 1642 1461.39L1642 2360.61C1642 2387.34 1620.34 2409 1593.61 2409L133.385 2409C106.663 2409 84.9999 2387.34 84.9999 2360.61Z" fill="#FFFFFF" fill-rule="evenodd"/><g filter="url(#fx8)" transform="translate(1678 1403)"><g><path d="M19.7229 68.1082C19.7229 41.3857 41.3857 19.7229 68.1081 19.7229L1472.34 19.7229C1499.06 19.7229 1520.72 41.3857 1520.72 68.1082L1520.72 967.337C1520.72 994.06 1499.06 1015.72 1472.34 1015.72L68.1081 1015.72C41.3857 1015.72 19.7229 994.06 19.7229 967.337Z" fill="#FFFFFF" fill-rule="evenodd"/></g></g><path d="M1688 1461.39C1688 1434.66 1709.66 1413 1736.39 1413L3140.61 1413C3167.34 1413 3189 1434.66 3189 1461.39L3189 2360.61C3189 2387.34 3167.34 2409 3140.61 2409L1736.39 2409C1709.66 2409 1688 2387.34 1688 2360.61Z" fill="#FFFFFF" fill-rule="evenodd"/></g></svg>