<svg width="4393" height="2478" xmlns="http://www.w3.org/2000/svg" xmlns:xlink="http://www.w3.org/1999/xlink" xml:space="preserve" overflow="hidden"><defs><filter id="fx0" x="-10%" y="-10%" width="120%" height="120%" filterUnits="userSpaceOnUse" primitiveUnits="userSpaceOnUse"><feComponentTransfer color-interpolation-filters="sRGB"><feFuncR type="discrete" tableValues="0 0"/><feFuncG type="discrete" tableValues="0 0"/><feFuncB type="discrete" tableValues="0 0"/><feFuncA type="linear" slope="0.4" intercept="0"/></feComponentTransfer><feGaussianBlur stdDeviation="6.11111 6.11111"/></filter><filter id="fx1" x="-10%" y="-10%" width="120%" height="120%" filterUnits="userSpaceOnUse" primitiveUnits="userSpaceOnUse"><feComponentTransfer color-interpolation-filters="sRGB"><feFuncR type="discrete" tableValues="0 0"/><feFuncG type="discrete" tableValues="0 0"/><feFuncB type="discrete" tableValues="0 0"/><feFuncA type="linear" slope="0.4" intercept="0"/></feComponentTransfer><feGaussianBlur stdDeviation="6.11111 6.11111"/></filter><filter id="fx2" x="-10%" y="-10%" width="120%" height="120%" filterUnits="userSpaceOnUse" primitiveUnits="userSpaceOnUse"><feComponentTransfer color-interpolation-filters="sRGB"><feFuncR type="discrete" tableValues="0 0"/><feFuncG type="discrete" tableValues="0 0"/><feFuncB type="discrete" tableValues="0 0"/><feFuncA type="linear" slope="0.4" intercept="0"/></feComponentTransfer><feGaussianBlur stdDeviation="6.11111 6.11111"/></filter><filter id="fx3" x="-10%" y="-10%" width="120%" height="120%" filterUnits="userSpaceOnUse" primitiveUnits="userSpaceOnUse"><feComponentTransfer color-interpolation-filters="sRGB"><feFuncR type="discrete" tableValues="0 0"/><feFuncG type="discrete" tableValues="0 0"/><feFuncB type="discrete" tableValues="0 0"/><feFuncA type="linear" slope="0.4" intercept="0"/></feComponentTransfer><feGaussianBlur stdDeviation="6.11111 6.11111"/></filter><filter id="fx4" x="-10%" y="-10%" width="120%" height="120%" filterUnits="userSpaceOnUse" primitiveUnits="userSpaceOnUse"><feComponentTransfer color-interpolation-filters="sRGB"><feFuncR type="discrete" tableValues="0 0"/><feFuncG type="discrete" tableValues="0 0"/><feFuncB type="discrete" tableValues="0 0"/><feFuncA type="linear" slope="0.4" intercept="0"/></feComponentTransfer><feGaussianBlur stdDeviation="6.11111 6.11111"/></filter><filter id="fx5" x="-10%" y="-10%" width="120%" height="120%" filterUnits="userSpaceOnUse" primitiveUnits="userSpaceOnUse"><feComponentTransfer color-interpolation-filters="sRGB"><feFuncR type="discrete" tableValues="0 0"/><feFuncG type="discrete" tableValues="0 0"/><feFuncB type="discrete" tableValues="0 0"/><feFuncA type="linear" slope="0.4" intercept="0"/></feComponentTransfer><feGaussianBlur stdDeviation="6.11111 6.11111"/></filter></defs><g><rect x="0" y="0" width="4393" height="2475" fill="#D9D9D9"/><g filter="url(#fx0)" transform="translate(33 19)"><g><path d="M19.7227 61.7218C19.7227 38.5263 38.5261 19.7226 61.7213 19.7226L4292.72 19.7226C4315.92 19.7226 4334.72 38.5263 4334.72 61.7218L4334.72 229.723C4334.72 252.919 4315.92 271.723 4292.72 271.723L61.7213 271.723C38.5261 271.723 19.7227 252.919 19.7227 229.723Z" fill="#FFFFFF" fill-rule="evenodd"/></g></g><path d="M43 70.9991C43 47.8036 61.8034 28.9999 84.9986 28.9999L4316 28.9999C4339.2 28.9999 4358 47.8036 4358 70.9991L4358 239.001C4358 262.196 4339.2 281 4316 281L84.9986 281C61.8034 281 43 262.196 43 239.001Z" fill="#FFFFFF" fill-rule="evenodd"/><g filter="url(#fx1)" transform="translate(3074 307)"><g><path d="M19.7229 43.2844C19.7229 30.2716 30.2719 19.7227 43.2846 19.7227L1258.16 19.7227C1271.17 19.7227 1281.72 30.2716 1281.72 43.2844L1281.72 481.161C1281.72 494.174 1271.17 504.723 1258.16 504.723L43.2846 504.723C30.2719 504.723 19.7229 494.174 19.7229 481.161Z" fill="#D9F2D0" fill-rule="evenodd"/></g></g><path d="M3084 340.562C3084 327.549 3094.55 317 3107.56 317L4322.44 317C4335.45 317 4346 327.549 4346 340.562L4346 778.438C4346 791.451 4335.45 802 4322.44 802L3107.56 802C3094.55 802 3084 791.451 3084 778.438Z" fill="#D9F2D0" fill-rule="evenodd"/><g filter="url(#fx2)" transform="translate(3074 820)"><g><path d="M19.7229 54.0208C19.7229 35.0786 35.0786 19.7229 54.0208 19.7229L1247.42 19.7229C1266.37 19.7229 1281.72 35.0786 1281.72 54.0208L1281.72 691.425C1281.72 710.367 1266.37 725.723 1247.42 725.723L54.0208 725.723C35.0786 725.723 19.7229 710.367 19.7229 691.425Z" fill="#FFFFFF" fill-rule="evenodd"/></g></g><path d="M3084 864.298C3084 845.356 3099.36 830 3118.3 830L4311.7 830C4330.64 830 4346 845.356 4346 864.298L4346 1501.7C4346 1520.64 4330.64 1536 4311.7 1536L3118.3 1536C3099.36 1536 3084 1520.64 3084 1501.7Z" fill="#FFFFFF" fill-rule="evenodd"/><g filter="url(#fx3)" transform="translate(1765 820)"><g><path d="M19.7229 54.0208C19.7229 35.0786 35.0786 19.7229 54.0208 19.7229L1247.42 19.7229C1266.37 19.7229 1281.72 35.0786 1281.72 54.0208L1281.72 691.425C1281.72 710.367 1266.37 725.723 1247.42 725.723L54.0208 725.723C35.0786 725.723 19.7229 710.367 19.7229 691.425Z" fill="#FFFFFF" fill-rule="evenodd"/></g></g><path d="M1775 864.298C1775 845.356 1790.36 830 1809.3 830L3002.7 830C3021.64 830 3037 845.356 3037 864.298L3037 1501.7C3037 1520.64 3021.64 1536 3002.7 1536L1809.3 1536C1790.36 1536 1775 1520.64 1775 1501.7Z" fill="#FFFFFF" fill-rule="evenodd"/><g filter="url(#fx4)" transform="translate(33 820)"><g><path d="M19.7227 54.02C19.7227 35.0782 35.078 19.7229 54.0197 19.7229L1670.43 19.7229C1689.37 19.7229 1704.72 35.0782 1704.72 54.02L1704.72 691.426C1704.72 710.367 1689.37 725.723 1670.43 725.723L54.0197 725.723C35.078 725.723 19.7227 710.367 19.7227 691.426Z" fill="#FFFFFF" fill-rule="evenodd"/></g></g><path d="M43 864.297C43 845.356 58.3553 830 77.297 830L1693.7 830C1712.64 830 1728 845.356 1728 864.297L1728 1501.7C1728 1520.64 1712.64 1536 1693.7 1536L77.297 1536C58.3553 1536 43 1520.64 43 1501.7Z" fill="#FFFFFF" fill-rule="evenodd"/><g filter="url(#fx5)" transform="translate(33 1555)"><g><path d="M19.7227 62.6682C19.7227 38.9501 38.95 19.7228 62.668 19.7228L4279.78 19.7228C4303.5 19.7228 4322.72 38.9501 4322.72 62.6682L4322.72 860.777C4322.72 884.495 4303.5 903.723 4279.78 903.723L62.668 903.723C38.95 903.723 19.7227 884.495 19.7227 860.777Z" fill="#FFFFFF" fill-rule="evenodd"/></g></g><path d="M43 1607.95C43 1584.23 62.2272 1565 85.9453 1565L4303.06 1565C4326.77 1565 4346 1584.23 4346 1607.95L4346 2406.05C4346 2429.77 4326.77 2449 4303.06 2449L85.9453 2449C62.2272 2449 43 2429.77 43 2406.05Z" fill="#FFFFFF" fill-rule="evenodd"/></g></svg>