<svg width="4402" height="2478" xmlns="http://www.w3.org/2000/svg" xmlns:xlink="http://www.w3.org/1999/xlink" xml:space="preserve" overflow="hidden"><defs><filter id="fx0" x="-10%" y="-10%" width="120%" height="120%" filterUnits="userSpaceOnUse" primitiveUnits="userSpaceOnUse"><feComponentTransfer color-interpolation-filters="sRGB"><feFuncR type="discrete" tableValues="0 0"/><feFuncG type="discrete" tableValues="0 0"/><feFuncB type="discrete" tableValues="0 0"/><feFuncA type="linear" slope="0.4" intercept="0"/></feComponentTransfer><feGaussianBlur stdDeviation="6.11111 6.11111"/></filter><filter id="fx1" x="-10%" y="-10%" width="120%" height="120%" filterUnits="userSpaceOnUse" primitiveUnits="userSpaceOnUse"><feComponentTransfer color-interpolation-filters="sRGB"><feFuncR type="discrete" tableValues="0 0"/><feFuncG type="discrete" tableValues="0 0"/><feFuncB type="discrete" tableValues="0 0"/><feFuncA type="linear" slope="0.4" intercept="0"/></feComponentTransfer><feGaussianBlur stdDeviation="6.11111 6.11111"/></filter><filter id="fx2" x="-10%" y="-10%" width="120%" height="120%" filterUnits="userSpaceOnUse" primitiveUnits="userSpaceOnUse"><feComponentTransfer color-interpolation-filters="sRGB"><feFuncR type="discrete" tableValues="0 0"/><feFuncG type="discrete" tableValues="0 0"/><feFuncB type="discrete" tableValues="0 0"/><feFuncA type="linear" slope="0.4" intercept="0"/></feComponentTransfer><feGaussianBlur stdDeviation="6.11111 6.11111"/></filter><filter id="fx3" x="-10%" y="-10%" width="120%" height="120%" filterUnits="userSpaceOnUse" primitiveUnits="userSpaceOnUse"><feComponentTransfer color-interpolation-filters="sRGB"><feFuncR type="discrete" tableValues="0 0"/><feFuncG type="discrete" tableValues="0 0"/><feFuncB type="discrete" tableValues="0 0"/><feFuncA type="linear" slope="0.4" intercept="0"/></feComponentTransfer><feGaussianBlur stdDeviation="6.11111 6.11111"/></filter><filter id="fx4" x="-10%" y="-10%" width="120%" height="120%" filterUnits="userSpaceOnUse" primitiveUnits="userSpaceOnUse"><feComponentTransfer color-interpolation-filters="sRGB"><feFuncR type="discrete" tableValues="0 0"/><feFuncG type="discrete" tableValues="0 0"/><feFuncB type="discrete" tableValues="0 0"/><feFuncA type="linear" slope="0.4" intercept="0"/></feComponentTransfer><feGaussianBlur stdDeviation="6.11111 6.11111"/></filter><filter id="fx5" x="-10%" y="-10%" width="120%" height="120%" filterUnits="userSpaceOnUse" primitiveUnits="userSpaceOnUse"><feComponentTransfer color-interpolation-filters="sRGB"><feFuncR type="discrete" tableValues="0 0"/><feFuncG type="discrete" tableValues="0 0"/><feFuncB type="discrete" tableValues="0 0"/><feFuncA type="linear" slope="0.4" intercept="0"/></feComponentTransfer><feGaussianBlur stdDeviation="6.11111 6.11111"/></filter><filter id="fx6" x="-10%" y="-10%" width="120%" height="120%" filterUnits="userSpaceOnUse" primitiveUnits="userSpaceOnUse"><feComponentTransfer color-interpolation-filters="sRGB"><feFuncR type="discrete" tableValues="0 0"/><feFuncG type="discrete" tableValues="0 0"/><feFuncB type="discrete" tableValues="0 0"/><feFuncA type="linear" slope="0.4" intercept="0"/></feComponentTransfer><feGaussianBlur stdDeviation="6.11111 6.11111"/></filter><clipPath id="clip7"><rect x="-9" y="0" width="4402" height="2478"/></clipPath><clipPath id="clip8"><rect x="87" y="83" width="1896" height="148"/></clipPath></defs><g clip-path="url(#clip7)" transform="translate(9 0)"><rect x="0" y="0" width="4393" height="2475" fill="#D9D9D9"/><g filter="url(#fx0)" transform="translate(33 19)"><g><path d="M19.7227 61.7218C19.7227 38.5263 38.5261 19.7226 61.7213 19.7226L4292.72 19.7226C4315.92 19.7226 4334.72 38.5263 4334.72 61.7218L4334.72 229.723C4334.72 252.919 4315.92 271.723 4292.72 271.723L61.7213 271.723C38.5261 271.723 19.7227 252.919 19.7227 229.723Z" fill="#FFFFFF" fill-rule="evenodd"/></g></g><g clip-path="url(#clip8)" filter="url(#fx1)" transform="translate(-10 13)"><g><path d="M53.833-2.65576 53.833 0 2.94287 0 2.94287-2.65576 6.17285-2.65576C8.99609-2.65576 11.269-3.1582 12.9917-4.16309 14.2358-4.83301 15.1929-5.98144 15.8628-7.6084 16.3892-8.75683 16.6523-11.7715 16.6523-16.6523L16.6523-80.6777C16.6523-85.6543 16.3892-88.7646 15.8628-90.0088 15.3364-91.2529 14.2717-92.3415 12.6687-93.2747 11.0657-94.2078 8.90039-94.6743 6.17285-94.6743L2.94287-94.6743 2.94287-97.3301 53.833-97.3301 53.833-94.6743 50.603-94.6743C47.7798-94.6743 45.5068-94.1719 43.7842-93.167 42.54-92.4971 41.5591-91.3486 40.8413-89.7217 40.3149-88.5732 40.0518-85.5586 40.0518-80.6777L40.0518-16.6523C40.0518-11.6758 40.3269-8.56543 40.8772-7.32129 41.4275-6.07715 42.5041-4.98852 44.1072-4.05542 45.7102-3.12231 47.8755-2.65576 50.603-2.65576ZM93.8981-97.3301 141.917-36.9653 141.917-78.8115C141.917-84.6494 141.08-88.5972 139.405-90.6548 137.108-93.4302 133.256-94.77 127.849-94.6743L127.849-97.3301 160.005-97.3301 160.005-94.6743C155.89-94.1479 153.126-93.4661 151.715-92.6287 150.303-91.7913 149.203-90.4275 148.413-88.5373 147.623-86.6472 147.229-83.4053 147.229-78.8115L147.229 2.2251 144.788 2.2251 78.9684-78.8115 78.9684-16.9395C78.9684-11.3408 80.2484-7.56055 82.8085-5.59863 85.3686-3.63672 88.2995-2.65576 91.6012-2.65576L93.8981-2.65576 93.8981 0 59.3732 0 59.3732-2.65576C64.7326-2.70361 68.465-3.8042 70.5705-5.95752 72.6759-8.11084 73.7287-11.7715 73.7287-16.9395L73.7287-85.6304 71.6471-88.2143C69.5895-90.7983 67.7711-92.4971 66.1921-93.3105 64.6129-94.124 62.34-94.5786 59.3732-94.6743L59.3732-97.3301ZM267.933-97.3301 267.933-94.6743C264.392-94.1001 261.233-92.21 258.458-89.0039 256.448-86.6113 253.458-80.9888 249.486-72.1362L215.966 2.2251 213.597 2.2251 180.221-75.1509C176.201-84.4819 173.51-89.9609 172.146-91.5879 170.782-93.2148 168.21-94.2436 164.43-94.6743L164.43-97.3301 211.085-97.3301 211.085-94.6743 209.506-94.6743C205.295-94.6743 202.424-94.1479 200.893-93.0952 199.792-92.3774 199.242-91.3247 199.242-89.937 199.242-89.0757 199.433-88.0588 199.816-86.8865 200.199-85.7141 201.491-82.5679 203.692-77.4477L224.436-28.998 243.672-72.1362C245.969-77.352 247.38-80.8452 247.907-82.6157 248.433-84.3862 248.696-85.8935 248.696-87.1377 248.696-88.5732 248.313-89.8413 247.548-90.9419 246.782-92.0425 245.658-92.8799 244.174-93.4541 242.117-94.2676 239.389-94.6743 235.992-94.6743L235.992-97.3301ZM309.323-91.7314 309.323-52.1103 311.261-52.1103C317.433-52.1103 321.908-54.0483 324.683-57.9243 327.458-61.8003 329.229-67.5185 329.994-75.0791L332.722-75.0791 332.722-24.1172 329.994-24.1172C329.42-29.668 328.212-34.2139 326.37-37.7549 324.527-41.2959 322.386-43.6765 319.946-44.8967 317.505-46.1169 313.964-46.727 309.323-46.727L309.323-19.3081C309.323-13.9487 309.55-10.6709 310.004-9.47461 310.459-8.27832 311.308-7.29736 312.553-6.53174 313.797-5.76611 315.806-5.3833 318.582-5.3833L324.396-5.3833C333.488-5.3833 340.773-7.48877 346.252-11.6997 351.731-15.9106 355.667-22.3228 358.059-30.936L360.715-30.936 356.337 0 272.214 0 272.214-2.65576 275.444-2.65576C278.267-2.65576 280.54-3.1582 282.263-4.16309 283.507-4.83301 284.464-5.98144 285.134-7.6084 285.66-8.75683 285.923-11.7715 285.923-16.6523L285.923-80.6777C285.923-85.0801 285.804-87.7837 285.564-88.7886 285.086-90.4634 284.201-91.7554 282.909-92.6645 281.09-94.0044 278.602-94.6743 275.444-94.6743L272.214-94.6743 272.214-97.3301 353.681-97.3301 353.681-68.5474 350.953-68.5474C349.566-75.5815 347.616-80.6299 345.104-83.6924 342.591-86.7549 339.038-89.0039 334.445-90.4394 331.765-91.3008 326.741-91.7314 319.371-91.7314ZM403.846-97.3301 451.865-36.9653 451.865-78.8115C451.865-84.6494 451.028-88.5972 449.353-90.6548 447.056-93.4302 443.204-94.77 437.797-94.6743L437.797-97.3301 469.953-97.3301 469.953-94.6743C465.838-94.1479 463.074-93.4661 461.663-92.6287 460.251-91.7913 459.15-90.4275 458.361-88.5373 457.571-86.6472 457.177-83.4053 457.177-78.8115L457.177 2.2251 454.736 2.2251 388.916-78.8115 388.916-16.9395C388.916-11.3408 390.196-7.56055 392.756-5.59863 395.316-3.63672 398.247-2.65576 401.549-2.65576L403.846-2.65576 403.846 0 369.321 0 369.321-2.65576C374.68-2.70361 378.413-3.8042 380.518-5.95752 382.624-8.11084 383.677-11.7715 383.677-16.9395L383.677-85.6304 381.595-88.2143C379.537-90.7983 377.719-92.4971 376.14-93.3105 374.561-94.124 372.288-94.5786 369.321-94.6743L369.321-97.3301ZM565.965-97.3301 565.965-70.9878 563.381-70.9878C561.85-77.0649 560.151-81.4314 558.285-84.0872 556.419-86.7429 553.859-88.8603 550.605-90.4394 548.787-91.3008 545.605-91.7314 541.059-91.7314L533.809-91.7314 533.809-16.6523C533.809-11.6758 534.084-8.56543 534.635-7.32129 535.185-6.07715 536.262-4.98852 537.865-4.05542 539.468-3.12231 541.657-2.65576 544.432-2.65576L547.662-2.65576 547.662 0 496.7 0 496.7-2.65576 499.93-2.65576C502.754-2.65576 505.026-3.1582 506.749-4.16309 507.993-4.83301 508.974-5.98144 509.692-7.6084 510.218-8.75683 510.482-11.7715 510.482-16.6523L510.482-91.7314 503.447-91.7314C496.892-91.7314 492.13-90.3437 489.164-87.5684 485.001-83.6924 482.369-78.1655 481.268-70.9878L478.541-70.9878 478.541-97.3301ZM625.315-98.6938C640.819-99.2681 653.416-94.7461 663.106-85.1279 672.796-75.5098 677.641-63.4751 677.641-49.0239 677.641-36.6782 674.028-25.8159 666.803-16.437 657.232-3.99561 643.714 2.2251 626.249 2.2251 608.735 2.2251 595.193-3.7085 585.623-15.5757 578.062-24.9546 574.282-36.0801 574.282-48.9521 574.282-63.4033 579.198-75.4499 589.032-85.092 598.865-94.7341 610.96-99.2681 625.315-98.6938ZM626.177-94.1001C617.276-94.1001 610.505-89.5542 605.864-80.4624 602.083-72.9976 600.193-62.2788 600.193-48.3061 600.193-31.7017 603.112-19.4277 608.95-11.4844 613.018-5.93359 618.712-3.1582 626.033-3.1582 630.962-3.1582 635.077-4.35449 638.379-6.74707 642.59-9.80957 645.868-14.7024 648.212-21.4255 650.557-28.1487 651.729-36.9175 651.729-47.7319 651.729-60.604 650.533-70.2341 648.141-76.6223 645.748-83.0105 642.698-87.5205 638.989-90.1523 635.281-92.7842 631.01-94.1001 626.177-94.1001ZM721.597-44.3584 721.597-17.083C721.597-11.8193 721.92-8.50561 722.566-7.14184 723.212-5.77808 724.348-4.68945 725.975-3.87598 727.602-3.0625 730.641-2.65576 735.091-2.65576L735.091 0 685.278 0 685.278-2.65576C689.776-2.65576 692.826-3.07446 694.429-3.91186 696.032-4.74927 697.157-5.83789 697.803-7.17773 698.449-8.51758 698.772-11.8193 698.772-17.083L698.772-80.2471C698.772-85.5107 698.449-88.8245 697.803-90.1882 697.157-91.552 696.02-92.6406 694.393-93.4541 692.766-94.2676 689.728-94.6743 685.278-94.6743L685.278-97.3301 730.497-97.3301C742.269-97.3301 750.882-96.5166 756.337-94.8896 761.792-93.2627 766.242-90.26 769.688-85.8816 773.133-81.5032 774.856-76.3711 774.856-70.4853 774.856-63.3076 772.272-57.374 767.104-52.6846 763.802-49.7178 759.184-47.4927 753.251-46.0093L776.65-13.0635C779.713-8.80469 781.89-6.14893 783.182-5.09619 785.144-3.61279 787.417-2.79932 790.001-2.65576L790.001 0 759.352 0 727.985-44.3584ZM721.597-92.0903 721.597-49.4546 725.688-49.4546C732.339-49.4546 737.316-50.0647 740.618-51.2849 743.92-52.5051 746.516-54.7063 748.406-57.8884 750.296-61.0705 751.241-65.2217 751.241-70.3418 751.241-77.7588 749.506-83.2378 746.037-86.7788 742.568-90.3198 736.981-92.0903 729.277-92.0903ZM887.891-97.3301 887.891-94.6743C884.685-94.2436 882.221-93.3105 880.498-91.875 878.105-89.8652 874.325-84.3862 869.157-75.438L848.055-40.1953 848.055-16.6523C848.055-11.6279 848.318-8.50561 848.844-7.2854 849.371-6.06518 850.411-4.98852 851.967-4.05542 853.522-3.12231 855.591-2.65576 858.175-2.65576L863.63-2.65576 863.63 0 809.008 0 809.008-2.65576 814.104-2.65576C816.975-2.65576 819.248-3.1582 820.923-4.16309 822.167-4.83301 823.148-5.98144 823.866-7.6084 824.392-8.75683 824.655-11.7715 824.655-16.6523L824.655-36.1758 801.758-77.8784C797.212-86.1089 794.006-90.9538 792.14-92.4133 790.274-93.8728 787.786-94.6265 784.675-94.6743L784.675-97.3301 831.331-97.3301 831.331-94.6743 829.249-94.6743C826.426-94.6743 824.452-94.2676 823.327-93.4541 822.203-92.6406 821.641-91.7793 821.641-90.8701 821.641-89.1475 823.555-84.8169 827.383-77.8784L844.968-45.6504 862.482-75.0073C866.836-82.1851 869.014-86.9463 869.014-89.291 869.014-90.583 868.392-91.6597 867.147-92.521 865.521-93.7173 862.53-94.4351 858.175-94.6743L858.175-97.3301ZM922.523 0 922.523-2.65576 925.753-2.65576C928.577-2.65576 930.742-3.09839 932.249-3.98364 933.757-4.8689 934.869-6.07715 935.587-7.6084 936.018-8.61328 936.233-11.6279 936.233-16.6523L936.233-80.6777C936.233-85.6543 935.97-88.7646 935.443-90.0088 934.917-91.2529 933.852-92.3415 932.249-93.2747 930.646-94.2078 928.481-94.6743 925.753-94.6743L922.523-94.6743 922.523-97.3301 966.092-97.3301C977.72-97.3301 987.075-95.751 994.157-92.5928 1002.82-88.7168 1009.39-82.855 1013.86-75.0073 1018.33-67.1597 1020.57-58.2832 1020.57-48.3779 1020.57-41.5352 1019.47-35.2307 1017.27-29.4646 1015.07-23.6985 1012.22-18.9373 1008.73-15.1809 1005.23-11.4246 1001.2-8.40991 996.633-6.13696 992.064-3.86401 986.477-2.10547 979.873-0.861328 976.955-0.287109 972.361 0 966.092 0ZM959.632-91.8032 959.632-15.8628C959.632-11.8433 959.824-9.37891 960.206-8.46973 960.589-7.56055 961.235-6.8667 962.144-6.38818 963.436-5.67041 965.303-5.31152 967.743-5.31152 975.734-5.31152 981.835-8.03906 986.046-13.4941 991.789-20.8633 994.66-32.2998 994.66-47.8037 994.66-60.293 992.698-70.27 988.774-77.7349 985.664-83.5727 981.668-87.5444 976.787-89.6499 973.342-91.1333 967.623-91.8511 959.632-91.8032ZM1087.73-27.7061 1053.35-27.7061 1049.26-18.2314C1047.92-15.0732 1047.25-12.4653 1047.25-10.4077 1047.25-7.68017 1048.35-5.67041 1050.55-4.37842 1051.84-3.61279 1055.02-3.03857 1060.09-2.65576L1060.09 0 1027.72 0 1027.72-2.65576C1031.22-3.18213 1034.09-4.62964 1036.34-6.99829 1038.59-9.36694 1041.36-14.2598 1044.66-21.6768L1079.47-99.3398 1080.84-99.3398 1115.94-19.5234C1119.29-11.9629 1122.04-7.20166 1124.19-5.23975 1125.82-3.75635 1128.12-2.89502 1131.08-2.65576L1131.08 0 1084 0 1084-2.65576 1085.93-2.65576C1089.72-2.65576 1092.37-3.18213 1093.9-4.23486 1094.95-5.00049 1095.48-6.10107 1095.48-7.53662 1095.48-8.39795 1095.34-9.2832 1095.05-10.1924 1094.95-10.623 1094.24-12.4175 1092.9-15.5757ZM1085.29-33.0176 1070.79-66.5376 1055.86-33.0176ZM1201.61-99.5552 1202.4-67.1118 1199.46-67.1118C1198.07-75.2466 1194.66-81.7903 1189.23-86.7429 1183.8-91.6955 1177.93-94.1719 1171.61-94.1719 1166.73-94.1719 1162.87-92.8679 1160.02-90.26 1157.17-87.6521 1155.75-84.6494 1155.75-81.2519 1155.75-79.0986 1156.25-77.1846 1157.26-75.5098 1158.64-73.2607 1160.87-71.0356 1163.93-68.8345 1166.18-67.2554 1171.37-64.456 1179.51-60.4365 1190.9-54.8379 1198.58-49.5503 1202.55-44.5737 1206.47-39.5972 1208.43-33.9028 1208.43-27.4907 1208.43-19.356 1205.26-12.3577 1198.92-6.49585 1192.58-0.634033 1184.53 2.29687 1174.77 2.29687 1171.71 2.29687 1168.81 1.98584 1166.08 1.36377 1163.36 0.741699 1159.94-0.430664 1155.82-2.15332 1153.52-3.11035 1151.63-3.58887 1150.15-3.58887 1148.91-3.58887 1147.59-3.11035 1146.2-2.15332 1144.81-1.19629 1143.69 0.263184 1142.83 2.2251L1140.17 2.2251 1140.17-34.5249 1142.83-34.5249C1144.93-24.189 1148.99-16.3054 1154.99-10.8743 1161-5.44311 1167.47-2.72754 1174.41-2.72754 1179.77-2.72754 1184.04-4.18701 1187.22-7.10596 1190.41-10.0249 1192-13.4224 1192-17.2983 1192-19.5952 1191.39-21.8203 1190.17-23.9736 1188.95-26.127 1187.09-28.1726 1184.6-30.1106 1182.11-32.0486 1177.71-34.5728 1171.4-37.6831 1162.54-42.0376 1156.18-45.7461 1152.3-48.8086 1148.43-51.8711 1145.45-55.2925 1143.37-59.0727 1141.29-62.853 1140.24-67.0161 1140.24-71.562 1140.24-79.314 1143.09-85.9175 1148.79-91.3726 1154.48-96.8276 1161.66-99.5552 1170.32-99.5552 1173.48-99.5552 1176.54-99.1724 1179.51-98.4067 1181.76-97.8325 1184.5-96.7678 1187.73-95.2126 1190.96-93.6575 1193.22-92.8799 1194.51-92.8799 1195.75-92.8799 1196.73-93.2627 1197.45-94.0283 1198.17-94.7939 1198.84-96.6362 1199.46-99.5552ZM1254.11-46.7988 1254.11-16.6523C1254.11-11.6758 1254.39-8.56543 1254.94-7.32129 1255.49-6.07715 1256.57-4.98852 1258.17-4.05542 1259.77-3.12231 1261.94-2.65576 1264.67-2.65576L1267.9-2.65576 1267.9 0 1217.01 0 1217.01-2.65576 1220.24-2.65576C1223.06-2.65576 1225.33-3.1582 1227.05-4.16309 1228.3-4.83301 1229.26-5.98144 1229.93-7.6084 1230.45-8.75683 1230.71-11.7715 1230.71-16.6523L1230.71-80.6777C1230.71-85.6543 1230.45-88.7646 1229.93-90.0088 1229.4-91.2529 1228.33-92.3415 1226.73-93.2747 1225.13-94.2078 1222.96-94.6743 1220.24-94.6743L1217.01-94.6743 1217.01-97.3301 1267.9-97.3301 1267.9-94.6743 1264.67-94.6743C1261.84-94.6743 1259.57-94.1719 1257.85-93.167 1256.6-92.4971 1255.62-91.3486 1254.9-89.7217 1254.38-88.5732 1254.11-85.5586 1254.11-80.6777L1254.11-53.1152 1288.5-53.1152 1288.5-80.6777C1288.5-85.6543 1288.23-88.7646 1287.71-90.0088 1287.18-91.2529 1286.1-92.3415 1284.48-93.2747 1282.85-94.2078 1280.67-94.6743 1277.94-94.6743L1274.79-94.6743 1274.79-97.3301 1325.6-97.3301 1325.6-94.6743 1322.45-94.6743C1319.57-94.6743 1317.3-94.1719 1315.63-93.167 1314.38-92.4971 1313.4-91.3486 1312.68-89.7217 1312.16-88.5732 1311.89-85.5586 1311.89-80.6777L1311.89-16.6523C1311.89-11.6758 1312.16-8.56543 1312.68-7.32129 1313.21-6.07715 1314.29-4.98852 1315.91-4.05542 1317.54-3.12231 1319.72-2.65576 1322.45-2.65576L1325.6-2.65576 1325.6 0 1274.79 0 1274.79-2.65576 1277.94-2.65576C1280.82-2.65576 1283.09-3.1582 1284.76-4.16309 1286.01-4.83301 1286.99-5.98144 1287.71-7.6084 1288.23-8.75683 1288.5-11.7715 1288.5-16.6523L1288.5-46.7988ZM1393.32-51.6079C1402.55-49.4546 1409.04-46.8467 1412.77-43.7842 1418.13-39.4297 1420.81-33.7832 1420.81-26.8447 1420.81-19.5234 1417.87-13.4702 1411.98-8.68506 1404.75-2.89502 1394.25 0 1380.47 0L1331.02 0 1331.02-2.65576C1335.51-2.65576 1338.56-3.07446 1340.17-3.91186 1341.77-4.74927 1342.89-5.83789 1343.54-7.17773 1344.19-8.51758 1344.51-11.8193 1344.51-17.083L1344.51-80.2471C1344.51-85.5107 1344.19-88.8245 1343.54-90.1882 1342.89-91.552 1341.76-92.6406 1340.13-93.4541 1338.5-94.2676 1335.47-94.6743 1331.02-94.6743L1331.02-97.3301 1377.67-97.3301C1388.82-97.3301 1396.72-96.3372 1401.36-94.3513 1406-92.3655 1409.66-89.3987 1412.34-85.4509 1415.02-81.5032 1416.36-77.3042 1416.36-72.854 1416.36-68.1645 1414.66-63.9895 1411.26-60.3288 1407.87-56.6682 1401.88-53.7612 1393.32-51.6079ZM1367.19-53.5459C1373.99-53.5459 1379-54.3115 1382.23-55.8428 1385.46-57.374 1387.93-59.5273 1389.66-62.3027 1391.38-65.0781 1392.24-68.6191 1392.24-72.9258 1392.24-77.2324 1391.39-80.7615 1389.69-83.5129 1387.99-86.2644 1385.57-88.3579 1382.41-89.7934 1379.25-91.229 1374.18-91.9228 1367.19-91.875ZM1367.19-47.9473 1367.19-16.7241 1367.12-13.1353C1367.12-10.5513 1367.78-8.60132 1369.09-7.2854 1370.41-5.96948 1372.36-5.31152 1374.94-5.31152 1378.77-5.31152 1382.3-6.16089 1385.53-7.85962 1388.76-9.55835 1391.24-12.0227 1392.96-15.2527 1394.68-18.4827 1395.54-22.0835 1395.54-26.0552 1395.54-30.6011 1394.49-34.6804 1392.39-38.2932 1390.28-41.906 1387.38-44.4302 1383.7-45.8657 1380.02-47.3013 1374.51-47.9951 1367.19-47.9473ZM1482.67-98.6938C1498.18-99.2681 1510.77-94.7461 1520.46-85.1279 1530.15-75.5098 1535-63.4751 1535-49.0239 1535-36.6782 1531.39-25.8159 1524.16-16.437 1514.59-3.99561 1501.07 2.2251 1483.61 2.2251 1466.09 2.2251 1452.55-3.7085 1442.98-15.5757 1435.42-24.9546 1431.64-36.0801 1431.64-48.9521 1431.64-63.4033 1436.56-75.4499 1446.39-85.092 1456.22-94.7341 1468.32-99.2681 1482.67-98.6938ZM1483.54-94.1001C1474.63-94.1001 1467.86-89.5542 1463.22-80.4624 1459.44-72.9976 1457.55-62.2788 1457.55-48.3061 1457.55-31.7017 1460.47-19.4277 1466.31-11.4844 1470.38-5.93359 1476.07-3.1582 1483.39-3.1582 1488.32-3.1582 1492.44-4.35449 1495.74-6.74707 1499.95-9.80957 1503.23-14.7024 1505.57-21.4255 1507.92-28.1487 1509.09-36.9175 1509.09-47.7319 1509.09-60.604 1507.89-70.2341 1505.5-76.6223 1503.11-83.0105 1500.06-87.5205 1496.35-90.1523 1492.64-92.7842 1488.37-94.1001 1483.54-94.1001ZM1601.06-27.7061 1566.68-27.7061 1562.59-18.2314C1561.25-15.0732 1560.58-12.4653 1560.58-10.4077 1560.58-7.68017 1561.68-5.67041 1563.88-4.37842 1565.17-3.61279 1568.36-3.03857 1573.43-2.65576L1573.43 0 1541.06 0 1541.06-2.65576C1544.55-3.18213 1547.42-4.62964 1549.67-6.99829 1551.92-9.36694 1554.69-14.2598 1558-21.6768L1592.81-99.3398 1594.17-99.3398 1629.27-19.5234C1632.62-11.9629 1635.37-7.20166 1637.53-5.23975 1639.15-3.75635 1641.45-2.89502 1644.42-2.65576L1644.42 0 1597.33 0 1597.33-2.65576 1599.27-2.65576C1603.05-2.65576 1605.7-3.18213 1607.24-4.23486 1608.29-5.00049 1608.81-6.10107 1608.81-7.53662 1608.81-8.39795 1608.67-9.2832 1608.38-10.1924 1608.29-10.623 1607.57-12.4175 1606.23-15.5757ZM1598.62-33.0176 1584.12-66.5376 1569.19-33.0176ZM1684.94-44.3584 1684.94-17.083C1684.94-11.8193 1685.27-8.50561 1685.91-7.14184 1686.56-5.77808 1687.7-4.68945 1689.32-3.87598 1690.95-3.0625 1693.99-2.65576 1698.44-2.65576L1698.44 0 1648.63 0 1648.63-2.65576C1653.12-2.65576 1656.17-3.07446 1657.78-3.91186 1659.38-4.74927 1660.5-5.83789 1661.15-7.17773 1661.8-8.51758 1662.12-11.8193 1662.12-17.083L1662.12-80.2471C1662.12-85.5107 1661.8-88.8245 1661.15-90.1882 1660.5-91.552 1659.37-92.6406 1657.74-93.4541 1656.11-94.2676 1653.08-94.6743 1648.63-94.6743L1648.63-97.3301 1693.85-97.3301C1705.62-97.3301 1714.23-96.5166 1719.68-94.8896 1725.14-93.2627 1729.59-90.26 1733.04-85.8816 1736.48-81.5032 1738.2-76.3711 1738.2-70.4853 1738.2-63.3076 1735.62-57.374 1730.45-52.6846 1727.15-49.7178 1722.53-47.4927 1716.6-46.0093L1740-13.0635C1743.06-8.80469 1745.24-6.14893 1746.53-5.09619 1748.49-3.61279 1750.76-2.79932 1753.35-2.65576L1753.35 0 1722.7 0 1691.33-44.3584ZM1684.94-92.0903 1684.94-49.4546 1689.04-49.4546C1695.69-49.4546 1700.66-50.0647 1703.97-51.2849 1707.27-52.5051 1709.86-54.7063 1711.75-57.8884 1713.64-61.0705 1714.59-65.2217 1714.59-70.3418 1714.59-77.7588 1712.85-83.2378 1709.38-86.7788 1705.92-90.3198 1700.33-92.0903 1692.62-92.0903ZM1753.83 0 1753.83-2.65576 1757.06-2.65576C1759.88-2.65576 1762.04-3.09839 1763.55-3.98364 1765.06-4.8689 1766.17-6.07715 1766.89-7.6084 1767.32-8.61328 1767.53-11.6279 1767.53-16.6523L1767.53-80.6777C1767.53-85.6543 1767.27-88.7646 1766.75-90.0088 1766.22-91.2529 1765.15-92.3415 1763.55-93.2747 1761.95-94.2078 1759.78-94.6743 1757.06-94.6743L1753.83-94.6743 1753.83-97.3301 1797.39-97.3301C1809.02-97.3301 1818.38-95.751 1825.46-92.5928 1834.12-88.7168 1840.69-82.855 1845.16-75.0073 1849.64-67.1597 1851.87-58.2832 1851.87-48.3779 1851.87-41.5352 1850.77-35.2307 1848.57-29.4646 1846.37-23.6985 1843.52-18.9373 1840.03-15.1809 1836.54-11.4246 1832.51-8.40991 1827.94-6.13696 1823.37-3.86401 1817.78-2.10547 1811.18-0.861328 1808.26-0.287109 1803.66 0 1797.39 0ZM1790.93-91.8032 1790.93-15.8628C1790.93-11.8433 1791.13-9.37891 1791.51-8.46973 1791.89-7.56055 1792.54-6.8667 1793.45-6.38818 1794.74-5.67041 1796.6-5.31152 1799.05-5.31152 1807.04-5.31152 1813.14-8.03906 1817.35-13.4941 1823.09-20.8633 1825.96-32.2998 1825.96-47.8037 1825.96-60.293 1824-70.27 1820.08-77.7349 1816.97-83.5727 1812.97-87.5444 1808.09-89.6499 1804.64-91.1333 1798.93-91.8511 1790.93-91.8032Z" transform="matrix(1 0 0 1 107.568 206)"/></g></g><path d="M43 70.9991C43 47.8036 61.8034 28.9999 84.9986 28.9999L4316 28.9999C4339.2 28.9999 4358 47.8036 4358 70.9991L4358 239.001C4358 262.196 4339.2 281 4316 281L84.9986 281C61.8034 281 43 262.196 43 239.001Z" fill="#FFFFFF" fill-rule="evenodd"/><text font-family="Times New Roman,Times New Roman_MSFontService,sans-serif" font-weight="700" font-size="147" transform="matrix(1 0 0 1 87.8452 209)">INVENTORY DASHBOARD</text><g filter="url(#fx2)" transform="translate(3074 307)"><g><path d="M19.7229 43.2844C19.7229 30.2716 30.2719 19.7227 43.2846 19.7227L1258.16 19.7227C1271.17 19.7227 1281.72 30.2716 1281.72 43.2844L1281.72 481.161C1281.72 494.174 1271.17 504.723 1258.16 504.723L43.2846 504.723C30.2719 504.723 19.7229 494.174 19.7229 481.161Z" fill="#D9F2D0" fill-rule="evenodd"/></g></g><path d="M3084 340.562C3084 327.549 3094.55 317 3107.56 317L4322.44 317C4335.45 317 4346 327.549 4346 340.562L4346 778.438C4346 791.451 4335.45 802 4322.44 802L3107.56 802C3094.55 802 3084 791.451 3084 778.438Z" fill="#D9F2D0" fill-rule="evenodd"/><g filter="url(#fx3)" transform="translate(3074 820)"><g><path d="M19.7229 54.0208C19.7229 35.0786 35.0786 19.7229 54.0208 19.7229L1247.42 19.7229C1266.37 19.7229 1281.72 35.0786 1281.72 54.0208L1281.72 691.425C1281.72 710.367 1266.37 725.723 1247.42 725.723L54.0208 725.723C35.0786 725.723 19.7229 710.367 19.7229 691.425Z" fill="#FFFFFF" fill-rule="evenodd"/></g></g><path d="M3084 864.298C3084 845.356 3099.36 830 3118.3 830L4311.7 830C4330.64 830 4346 845.356 4346 864.298L4346 1501.7C4346 1520.64 4330.64 1536 4311.7 1536L3118.3 1536C3099.36 1536 3084 1520.64 3084 1501.7Z" fill="#FFFFFF" fill-rule="evenodd"/><g filter="url(#fx4)" transform="translate(1765 820)"><g><path d="M19.7229 54.0208C19.7229 35.0786 35.0786 19.7229 54.0208 19.7229L1247.42 19.7229C1266.37 19.7229 1281.72 35.0786 1281.72 54.0208L1281.72 691.425C1281.72 710.367 1266.37 725.723 1247.42 725.723L54.0208 725.723C35.0786 725.723 19.7229 710.367 19.7229 691.425Z" fill="#FFFFFF" fill-rule="evenodd"/></g></g><path d="M1775 864.298C1775 845.356 1790.36 830 1809.3 830L3002.7 830C3021.64 830 3037 845.356 3037 864.298L3037 1501.7C3037 1520.64 3021.64 1536 3002.7 1536L1809.3 1536C1790.36 1536 1775 1520.64 1775 1501.7Z" fill="#FFFFFF" fill-rule="evenodd"/><g filter="url(#fx5)" transform="translate(33 820)"><g><path d="M19.7227 54.02C19.7227 35.0782 35.078 19.7229 54.0197 19.7229L1670.43 19.7229C1689.37 19.7229 1704.72 35.0782 1704.72 54.02L1704.72 691.426C1704.72 710.367 1689.37 725.723 1670.43 725.723L54.0197 725.723C35.078 725.723 19.7227 710.367 19.7227 691.426Z" fill="#FFFFFF" fill-rule="evenodd"/></g></g><path d="M43 864.297C43 845.356 58.3553 830 77.297 830L1693.7 830C1712.64 830 1728 845.356 1728 864.297L1728 1501.7C1728 1520.64 1712.64 1536 1693.7 1536L77.297 1536C58.3553 1536 43 1520.64 43 1501.7Z" fill="#FFFFFF" fill-rule="evenodd"/><g filter="url(#fx6)" transform="translate(33 1555)"><g><path d="M19.7227 62.6682C19.7227 38.9501 38.95 19.7228 62.668 19.7228L4279.78 19.7228C4303.5 19.7228 4322.72 38.9501 4322.72 62.6682L4322.72 860.777C4322.72 884.495 4303.5 903.723 4279.78 903.723L62.668 903.723C38.95 903.723 19.7227 884.495 19.7227 860.777Z" fill="#FFFFFF" fill-rule="evenodd"/></g></g><path d="M43 1607.95C43 1584.23 62.2272 1565 85.9453 1565L4303.06 1565C4326.77 1565 4346 1584.23 4346 1607.95L4346 2406.05C4346 2429.77 4326.77 2449 4303.06 2449L85.9453 2449C62.2272 2449 43 2429.77 43 2406.05Z" fill="#FFFFFF" fill-rule="evenodd"/></g></svg>